<svg xmlns="http://www.w3.org/2000/svg" xmlns:xlink="http://www.w3.org/1999/xlink" viewBox="0 0 500 500"><defs><style>.cls-1{fill:#fff;}.cls-2{fill:url(#linear-gradient);}.cls-3{fill:url(#linear-gradient-2);}.cls-4{fill:url(#linear-gradient-3);}.cls-5{fill:url(#linear-gradient-4);}.cls-6{fill:url(#linear-gradient-5);}.cls-7{fill:url(#linear-gradient-6);}.cls-8{fill:url(#linear-gradient-7);}.cls-9{fill:url(#linear-gradient-8);}.cls-10{fill:url(#linear-gradient-9);}.cls-11{fill:url(#linear-gradient-10);}.cls-12{fill:url(#linear-gradient-11);}.cls-13{fill:url(#linear-gradient-12);}.cls-14{fill:url(#linear-gradient-13);}.cls-15{fill:url(#linear-gradient-14);}.cls-16{fill:url(#linear-gradient-15);}.cls-17{fill:url(#linear-gradient-16);}.cls-18{fill:url(#linear-gradient-17);}.cls-19{fill:#ef7631;}.cls-20{fill:#030e49;}.cls-21{fill:#020c38;}.cls-22{fill:#f5efe2;}.cls-23{fill:#f39546;}.cls-24{fill:#dcd8c8;}.cls-25{fill:url(#linear-gradient-18);}.cls-26{fill:#182fd0;}.cls-27{fill:#ffc38a;}.cls-28{fill:url(#linear-gradient-19);}.cls-29{fill:#de0b58;}.cls-30{fill:#e3296b;}.cls-31{fill:#ffbf00;}.cls-32{fill:#98abfd;}.cls-33{fill:#ffd737;}.cls-34{fill:#ffc50c;}.cls-35{fill:url(#linear-gradient-20);}.cls-36{fill:url(#linear-gradient-21);}.cls-37{fill:#0b20c5;}.cls-38{fill:#0f21be;}.cls-39{fill:url(#linear-gradient-22);}.cls-40{fill:url(#linear-gradient-23);}.cls-41{fill:url(#linear-gradient-24);}.cls-100,.cls-101,.cls-102,.cls-103,.cls-104,.cls-105,.cls-106,.cls-107,.cls-108,.cls-109,.cls-110,.cls-111,.cls-112,.cls-113,.cls-114,.cls-115,.cls-116,.cls-117,.cls-42,.cls-43,.cls-44,.cls-45,.cls-46,.cls-47,.cls-48,.cls-49,.cls-50,.cls-51,.cls-52,.cls-53,.cls-54,.cls-55,.cls-56,.cls-57,.cls-58,.cls-59,.cls-60,.cls-61,.cls-62,.cls-63,.cls-64,.cls-65,.cls-66,.cls-67,.cls-68,.cls-69,.cls-70,.cls-71,.cls-72,.cls-73,.cls-74,.cls-75,.cls-76,.cls-77,.cls-78,.cls-79,.cls-80,.cls-81,.cls-82,.cls-83,.cls-84,.cls-85,.cls-86,.cls-87,.cls-88,.cls-89,.cls-90,.cls-91,.cls-92,.cls-93,.cls-94,.cls-95,.cls-96,.cls-97,.cls-98,.cls-99{fill-rule:evenodd;}.cls-42{fill:url(#linear-gradient-25);}.cls-43{fill:url(#linear-gradient-26);}.cls-44{fill:url(#linear-gradient-27);}.cls-45{fill:url(#linear-gradient-28);}.cls-46{fill:url(#linear-gradient-29);}.cls-47{fill:url(#linear-gradient-30);}.cls-48{fill:url(#linear-gradient-31);}.cls-49{fill:url(#linear-gradient-32);}.cls-50{fill:url(#linear-gradient-33);}.cls-51{fill:url(#linear-gradient-34);}.cls-52{fill:url(#linear-gradient-35);}.cls-53{fill:url(#linear-gradient-36);}.cls-54{fill:url(#linear-gradient-37);}.cls-55{fill:url(#linear-gradient-38);}.cls-56{fill:url(#linear-gradient-39);}.cls-57{fill:url(#linear-gradient-40);}.cls-58{fill:url(#linear-gradient-41);}.cls-59{fill:url(#linear-gradient-42);}.cls-60{fill:url(#linear-gradient-43);}.cls-61{fill:url(#linear-gradient-44);}.cls-62{fill:url(#linear-gradient-45);}.cls-63{fill:url(#linear-gradient-46);}.cls-64{fill:url(#linear-gradient-47);}.cls-65{fill:url(#linear-gradient-48);}.cls-66{fill:url(#linear-gradient-49);}.cls-67{fill:url(#linear-gradient-50);}.cls-68{fill:url(#linear-gradient-51);}.cls-69{fill:url(#linear-gradient-52);}.cls-70{fill:url(#linear-gradient-53);}.cls-71{fill:url(#linear-gradient-54);}.cls-72{fill:url(#linear-gradient-55);}.cls-73{fill:url(#linear-gradient-56);}.cls-74{fill:url(#linear-gradient-57);}.cls-75{fill:url(#linear-gradient-58);}.cls-76{fill:url(#linear-gradient-59);}.cls-77{fill:url(#linear-gradient-60);}.cls-78{fill:url(#linear-gradient-61);}.cls-79{fill:url(#linear-gradient-62);}.cls-80{fill:url(#linear-gradient-63);}.cls-81{fill:url(#linear-gradient-64);}.cls-82{fill:url(#linear-gradient-65);}.cls-83{fill:url(#linear-gradient-66);}.cls-84{fill:url(#linear-gradient-67);}.cls-85{fill:url(#linear-gradient-68);}.cls-86{fill:url(#linear-gradient-69);}.cls-87{fill:url(#linear-gradient-70);}.cls-88{fill:url(#linear-gradient-71);}.cls-89{fill:url(#linear-gradient-72);}.cls-90{fill:url(#linear-gradient-73);}.cls-91{fill:url(#linear-gradient-74);}.cls-92{fill:url(#linear-gradient-75);}.cls-93{fill:url(#linear-gradient-76);}.cls-94{fill:url(#linear-gradient-77);}.cls-95{fill:url(#linear-gradient-78);}.cls-96{fill:url(#linear-gradient-79);}.cls-97{fill:url(#linear-gradient-80);}.cls-98{fill:url(#linear-gradient-81);}.cls-99{fill:url(#linear-gradient-82);}.cls-100{fill:url(#linear-gradient-83);}.cls-101{fill:url(#linear-gradient-84);}.cls-102{fill:url(#linear-gradient-85);}.cls-103{fill:url(#linear-gradient-86);}.cls-104{fill:url(#linear-gradient-87);}.cls-105{fill:url(#linear-gradient-88);}.cls-106{fill:url(#linear-gradient-89);}.cls-107{fill:url(#linear-gradient-90);}.cls-108{fill:url(#linear-gradient-91);}.cls-109{fill:url(#linear-gradient-92);}.cls-110{fill:url(#linear-gradient-93);}.cls-111{fill:url(#linear-gradient-94);}.cls-112{fill:url(#linear-gradient-95);}.cls-113{fill:url(#linear-gradient-96);}.cls-114{fill:url(#linear-gradient-97);}.cls-115{fill:url(#linear-gradient-98);}.cls-116{fill:url(#linear-gradient-99);}.cls-117{fill:url(#linear-gradient-100);}</style><linearGradient id="linear-gradient" x1="240.31" y1="223.85" x2="294.15" y2="223.85" gradientTransform="matrix(-0.89, -0.45, -0.45, 0.89, 557.34, 102.74)" gradientUnits="userSpaceOnUse"><stop offset="0" stop-color="#fab4c6"/><stop offset="0.06" stop-color="#f7a2ba"/><stop offset="0.22" stop-color="#ef749c"/><stop offset="0.38" stop-color="#e94d83"/><stop offset="0.55" stop-color="#e42f6f"/><stop offset="0.7" stop-color="#e01961"/><stop offset="0.86" stop-color="#de0c59"/><stop offset="1" stop-color="#dd0856"/></linearGradient><linearGradient id="linear-gradient-2" x1="209.05" y1="179.91" x2="229.32" y2="179.91" gradientTransform="matrix(0.99, -0.12, 0.12, 0.99, -19, 27.77)" gradientUnits="userSpaceOnUse"><stop offset="0.21" stop-color="#071786"/><stop offset="0.34" stop-color="#061577"/><stop offset="0.78" stop-color="#030e4a"/><stop offset="1" stop-color="#020c38"/></linearGradient><linearGradient id="linear-gradient-3" x1="208.5" y1="179.92" x2="229.88" y2="179.92" xlink:href="#linear-gradient-2"/><linearGradient id="linear-gradient-4" x1="221.07" y1="78.09" x2="245.31" y2="78.09" gradientTransform="translate(-0.62 219.79) rotate(-40.83)" gradientUnits="userSpaceOnUse"><stop offset="0" stop-color="#b8c1f1"/><stop offset="0.08" stop-color="#a4a5dd"/><stop offset="0.22" stop-color="#897fc2"/><stop offset="0.36" stop-color="#735fab"/><stop offset="0.5" stop-color="#614699"/><stop offset="0.65" stop-color="#55358d"/><stop offset="0.81" stop-color="#4d2a85"/><stop offset="1" stop-color="#4b2783"/></linearGradient><linearGradient id="linear-gradient-5" x1="218.5" y1="103.48" x2="243.27" y2="103.48" xlink:href="#linear-gradient-4"/><linearGradient id="linear-gradient-6" x1="220.77" y1="171.57" x2="240.71" y2="171.57" gradientTransform="matrix(1, 0, 0, 1, 0, 0)" xlink:href="#linear-gradient-2"/><linearGradient id="linear-gradient-7" x1="236.56" y1="154.45" x2="245.52" y2="154.45" gradientTransform="matrix(1, 0, 0, 1, 0, 0)" xlink:href="#linear-gradient-2"/><linearGradient id="linear-gradient-8" x1="221.96" y1="214.78" x2="235.43" y2="214.78" gradientTransform="matrix(-0.94, 0.34, 0.34, 0.94, 503.48, -104.44)" gradientUnits="userSpaceOnUse"><stop offset="0" stop-color="#b4b7cc"/><stop offset="0.06" stop-color="#acafc6"/><stop offset="0.31" stop-color="#8e91b2"/><stop offset="0.55" stop-color="#787ba3"/><stop offset="0.78" stop-color="#6b6e9a"/><stop offset="1" stop-color="#676a97"/></linearGradient><linearGradient id="linear-gradient-9" x1="197.99" y1="266.16" x2="221.02" y2="266.16" gradientTransform="matrix(-0.94, 0.34, 0.34, 0.94, 503.48, -104.44)" xlink:href="#linear-gradient"/><linearGradient id="linear-gradient-10" x1="300.98" y1="275.75" x2="365.51" y2="275.75" gradientTransform="matrix(0.94, -0.34, 0.34, 0.94, -37.65, 91.6)" xlink:href="#linear-gradient-2"/><linearGradient id="linear-gradient-11" x1="331.9" y1="240.73" x2="353.85" y2="240.73" gradientTransform="matrix(0.94, -0.34, 0.34, 0.94, -37.65, 91.6)" xlink:href="#linear-gradient-2"/><linearGradient id="linear-gradient-12" x1="135.91" y1="256.39" x2="87.08" y2="207.57" gradientTransform="matrix(1, 0, 0, 1, 0, 0)" xlink:href="#linear-gradient-4"/><linearGradient id="linear-gradient-13" x1="90.58" y1="232.13" x2="132.36" y2="232.13" gradientTransform="matrix(1, 0, 0, 1, 0, 0)" xlink:href="#linear-gradient-2"/><linearGradient id="linear-gradient-14" x1="90.32" y1="232.15" x2="132.68" y2="232.15" gradientTransform="matrix(1, 0, 0, 1, 0, 0)" xlink:href="#linear-gradient-2"/><linearGradient id="linear-gradient-15" x1="33" y1="372.5" x2="344.42" y2="372.5" gradientUnits="userSpaceOnUse"><stop offset="0.1" stop-color="#d6e0fc" stop-opacity="0.1"/><stop offset="0.22" stop-color="#b9c6ec" stop-opacity="0.23"/><stop offset="0.58" stop-color="#697fc2" stop-opacity="0.59"/><stop offset="0.85" stop-color="#3853a8" stop-opacity="0.82"/><stop offset="1" stop-color="#25429e" stop-opacity="0.9"/></linearGradient><linearGradient id="linear-gradient-16" x1="203.93" y1="250" x2="381.57" y2="250" gradientUnits="userSpaceOnUse"><stop offset="0" stop-color="#d6e0fc"/><stop offset="0.44" stop-color="#a6c2fe"/><stop offset="0.8" stop-color="#85adff"/><stop offset="1" stop-color="#79a5ff"/></linearGradient><linearGradient id="linear-gradient-17" x1="157.68" y1="372.99" x2="157.68" y2="239.99" gradientTransform="matrix(1, 0, 0, 1, 0, 0)" xlink:href="#linear-gradient-2"/><linearGradient id="linear-gradient-18" x1="302.05" y1="197.61" x2="331.11" y2="197.61" gradientUnits="userSpaceOnUse"><stop offset="0" stop-color="#dcd8c8"/><stop offset="1" stop-color="#f5efe2"/></linearGradient><linearGradient id="linear-gradient-19" x1="244.71" y1="383.25" x2="280.63" y2="383.25" gradientUnits="userSpaceOnUse"><stop offset="0" stop-color="#071786"/><stop offset="0.39" stop-color="#051261"/><stop offset="0.78" stop-color="#030e43"/><stop offset="1" stop-color="#020c38"/></linearGradient><linearGradient id="linear-gradient-20" x1="-283.36" y1="263.27" x2="-267.65" y2="263.27" gradientTransform="matrix(-1, 0, 0, 1, 143.29, 0)" gradientUnits="userSpaceOnUse"><stop offset="0" stop-color="#030f4b"/><stop offset="0.15" stop-color="#030e45"/><stop offset="0.51" stop-color="#020c3b"/><stop offset="1" stop-color="#020c38"/></linearGradient><linearGradient id="linear-gradient-21" x1="-273.28" y1="262.05" x2="-264.09" y2="262.05" xlink:href="#linear-gradient-20"/><linearGradient id="linear-gradient-22" x1="164.29" y1="183.56" x2="166.8" y2="183.56" gradientUnits="userSpaceOnUse"><stop offset="0.57" stop-color="#030e49"/><stop offset="0.62" stop-color="#030d45"/><stop offset="0.78" stop-color="#020c3b"/><stop offset="1" stop-color="#020c38"/></linearGradient><linearGradient id="linear-gradient-23" x1="130.24" y1="112.73" x2="83.59" y2="159.38" gradientUnits="userSpaceOnUse"><stop offset="0.02" stop-color="#f7f9fa"/><stop offset="0.19" stop-color="#edf0f7"/><stop offset="0.48" stop-color="#d1d7ee"/><stop offset="0.85" stop-color="#a4afe1"/><stop offset="1" stop-color="#919edb"/></linearGradient><linearGradient id="linear-gradient-24" x1="155.73" y1="70.57" x2="132.4" y2="93.89" xlink:href="#linear-gradient-23"/><linearGradient id="linear-gradient-25" x1="398.22" y1="113.19" x2="402.35" y2="113.19" xlink:href="#linear-gradient-16"/><linearGradient id="linear-gradient-26" x1="402.59" y1="108.05" x2="406.78" y2="108.05" xlink:href="#linear-gradient-16"/><linearGradient id="linear-gradient-27" x1="407.12" y1="103.09" x2="411.34" y2="103.09" xlink:href="#linear-gradient-16"/><linearGradient id="linear-gradient-28" x1="387.16" y1="130.05" x2="390.85" y2="130.05" xlink:href="#linear-gradient-16"/><linearGradient id="linear-gradient-29" x1="390.37" y1="124.15" x2="394.28" y2="124.15" xlink:href="#linear-gradient-16"/><linearGradient id="linear-gradient-30" x1="394.09" y1="118.57" x2="398.13" y2="118.57" xlink:href="#linear-gradient-16"/><linearGradient id="linear-gradient-31" x1="382.84" y1="149.68" x2="385.16" y2="149.68" xlink:href="#linear-gradient-16"/><linearGradient id="linear-gradient-32" x1="383.15" y1="142.85" x2="386.04" y2="142.85" xlink:href="#linear-gradient-16"/><linearGradient id="linear-gradient-33" x1="384.65" y1="136.32" x2="388.02" y2="136.32" xlink:href="#linear-gradient-16"/><linearGradient id="linear-gradient-34" x1="388.22" y1="168.86" x2="392.23" y2="168.86" xlink:href="#linear-gradient-16"/><linearGradient id="linear-gradient-35" x1="385.1" y1="162.96" x2="388.68" y2="162.96" xlink:href="#linear-gradient-16"/><linearGradient id="linear-gradient-36" x1="383.28" y1="156.53" x2="386.29" y2="156.53" xlink:href="#linear-gradient-16"/><linearGradient id="linear-gradient-37" x1="403.01" y1="182.48" x2="407.39" y2="182.48" xlink:href="#linear-gradient-16"/><linearGradient id="linear-gradient-38" x1="397.48" y1="178.57" x2="401.85" y2="178.57" xlink:href="#linear-gradient-16"/><linearGradient id="linear-gradient-39" x1="392.47" y1="174.09" x2="396.74" y2="174.09" xlink:href="#linear-gradient-16"/><linearGradient id="linear-gradient-40" x1="419.73" y1="193.95" x2="424.09" y2="193.95" xlink:href="#linear-gradient-16"/><linearGradient id="linear-gradient-41" x1="414.22" y1="190.06" x2="418.59" y2="190.06" xlink:href="#linear-gradient-16"/><linearGradient id="linear-gradient-42" x1="408.65" y1="186.28" x2="413.03" y2="186.28" xlink:href="#linear-gradient-16"/><linearGradient id="linear-gradient-43" x1="435.29" y1="206.9" x2="439.53" y2="206.9" xlink:href="#linear-gradient-16"/><linearGradient id="linear-gradient-44" x1="430.35" y1="202.3" x2="434.66" y2="202.3" xlink:href="#linear-gradient-16"/><linearGradient id="linear-gradient-45" x1="425.15" y1="198.04" x2="429.49" y2="198.04" xlink:href="#linear-gradient-16"/><linearGradient id="linear-gradient-46" x1="447.59" y1="222.95" x2="451.3" y2="222.95" xlink:href="#linear-gradient-16"/><linearGradient id="linear-gradient-47" x1="444.05" y1="217.19" x2="448.01" y2="217.19" xlink:href="#linear-gradient-16"/><linearGradient id="linear-gradient-48" x1="439.93" y1="211.86" x2="444.07" y2="211.86" xlink:href="#linear-gradient-16"/><linearGradient id="linear-gradient-49" x1="452.43" y1="242.37" x2="454.92" y2="242.37" xlink:href="#linear-gradient-16"/><linearGradient id="linear-gradient-50" x1="452.19" y1="235.59" x2="454.86" y2="235.59" xlink:href="#linear-gradient-16"/><linearGradient id="linear-gradient-51" x1="450.46" y1="229.11" x2="453.74" y2="229.11" xlink:href="#linear-gradient-16"/><linearGradient id="linear-gradient-52" x1="445.6" y1="261.28" x2="449.46" y2="261.28" xlink:href="#linear-gradient-16"/><linearGradient id="linear-gradient-53" x1="448.79" y1="255.33" x2="452.32" y2="255.33" xlink:href="#linear-gradient-16"/><linearGradient id="linear-gradient-54" x1="451.1" y1="249.01" x2="454.17" y2="249.01" xlink:href="#linear-gradient-16"/><linearGradient id="linear-gradient-55" x1="249.25" y1="76.97" x2="253.53" y2="76.97" gradientTransform="matrix(1, 0, 0, 1, 0, 0)" xlink:href="#linear-gradient"/><linearGradient id="linear-gradient-56" x1="242.68" y1="78.93" x2="247" y2="78.93" gradientTransform="matrix(1, 0, 0, 1, 0, 0)" xlink:href="#linear-gradient"/><linearGradient id="linear-gradient-57" x1="236.23" y1="81.22" x2="240.6" y2="81.22" gradientTransform="matrix(1, 0, 0, 1, 0, 0)" xlink:href="#linear-gradient"/><linearGradient id="linear-gradient-58" x1="269.51" y1="73.03" x2="273.56" y2="73.03" gradientTransform="matrix(1, 0, 0, 1, 0, 0)" xlink:href="#linear-gradient"/><linearGradient id="linear-gradient-59" x1="262.7" y1="74.01" x2="266.84" y2="74.01" gradientTransform="matrix(1, 0, 0, 1, 0, 0)" xlink:href="#linear-gradient"/><linearGradient id="linear-gradient-60" x1="255.97" y1="75.31" x2="260.18" y2="75.31" gradientTransform="matrix(1, 0, 0, 1, 0, 0)" xlink:href="#linear-gradient"/><linearGradient id="linear-gradient-61" x1="290.09" y1="72.46" x2="294.04" y2="72.46" gradientTransform="matrix(1, 0, 0, 1, 0, 0)" xlink:href="#linear-gradient"/><linearGradient id="linear-gradient-62" x1="283.29" y1="72.22" x2="287.14" y2="72.22" gradientTransform="matrix(1, 0, 0, 1, 0, 0)" xlink:href="#linear-gradient"/><linearGradient id="linear-gradient-63" x1="276.42" y1="72.44" x2="280.36" y2="72.44" gradientTransform="matrix(1, 0, 0, 1, 0, 0)" xlink:href="#linear-gradient"/><linearGradient id="linear-gradient-64" x1="310.07" y1="76.04" x2="314.38" y2="76.04" gradientTransform="matrix(1, 0, 0, 1, 0, 0)" xlink:href="#linear-gradient"/><linearGradient id="linear-gradient-65" x1="303.52" y1="74.32" x2="307.72" y2="74.32" gradientTransform="matrix(1, 0, 0, 1, 0, 0)" xlink:href="#linear-gradient"/><linearGradient id="linear-gradient-66" x1="296.87" y1="73.15" x2="300.95" y2="73.15" gradientTransform="matrix(1, 0, 0, 1, 0, 0)" xlink:href="#linear-gradient"/><linearGradient id="linear-gradient-67" x1="328.66" y1="84.43" x2="333.06" y2="84.43" gradientTransform="matrix(1, 0, 0, 1, 0, 0)" xlink:href="#linear-gradient"/><linearGradient id="linear-gradient-68" x1="322.71" y1="81.1" x2="327.11" y2="81.1" gradientTransform="matrix(1, 0, 0, 1, 0, 0)" xlink:href="#linear-gradient"/><linearGradient id="linear-gradient-69" x1="316.52" y1="78.31" x2="320.89" y2="78.31" gradientTransform="matrix(1, 0, 0, 1, 0, 0)" xlink:href="#linear-gradient"/><linearGradient id="linear-gradient-70" x1="344.49" y1="97.43" x2="348.77" y2="97.43" gradientTransform="matrix(1, 0, 0, 1, 0, 0)" xlink:href="#linear-gradient"/><linearGradient id="linear-gradient-71" x1="339.58" y1="92.66" x2="343.94" y2="92.66" gradientTransform="matrix(1, 0, 0, 1, 0, 0)" xlink:href="#linear-gradient"/><linearGradient id="linear-gradient-72" x1="334.32" y1="88.33" x2="338.72" y2="88.33" gradientTransform="matrix(1, 0, 0, 1, 0, 0)" xlink:href="#linear-gradient"/><linearGradient id="linear-gradient-73" x1="356.92" y1="113.85" x2="360.81" y2="113.85" gradientTransform="matrix(1, 0, 0, 1, 0, 0)" xlink:href="#linear-gradient"/><linearGradient id="linear-gradient-74" x1="353.16" y1="108.09" x2="357.21" y2="108.09" gradientTransform="matrix(1, 0, 0, 1, 0, 0)" xlink:href="#linear-gradient"/><linearGradient id="linear-gradient-75" x1="349.04" y1="102.63" x2="353.22" y2="102.63" gradientTransform="matrix(1, 0, 0, 1, 0, 0)" xlink:href="#linear-gradient"/><linearGradient id="linear-gradient-76" x1="26.93" y1="437.72" x2="31.13" y2="437.72" gradientTransform="translate(351.82 42.95) rotate(44.72)" xlink:href="#linear-gradient-8"/><linearGradient id="linear-gradient-77" x1="21.52" y1="434.36" x2="25.73" y2="434.36" gradientTransform="translate(351.82 42.95) rotate(44.72)" xlink:href="#linear-gradient-8"/><linearGradient id="linear-gradient-78" x1="16.45" y1="430.56" x2="20.62" y2="430.56" gradientTransform="translate(351.82 42.95) rotate(44.72)" xlink:href="#linear-gradient-8"/><linearGradient id="linear-gradient-79" x1="44.79" y1="444.72" x2="48.76" y2="444.72" gradientTransform="translate(351.82 42.95) rotate(44.72)" xlink:href="#linear-gradient-8"/><linearGradient id="linear-gradient-80" x1="38.61" y1="442.96" x2="42.7" y2="442.96" gradientTransform="translate(351.82 42.95) rotate(44.72)" xlink:href="#linear-gradient-8"/><linearGradient id="linear-gradient-81" x1="32.67" y1="440.62" x2="36.83" y2="440.62" gradientTransform="translate(351.82 42.95) rotate(44.72)" xlink:href="#linear-gradient-8"/><linearGradient id="linear-gradient-82" x1="63.78" y1="444.38" x2="67.86" y2="444.38" gradientTransform="translate(351.82 42.95) rotate(44.72)" xlink:href="#linear-gradient-8"/><linearGradient id="linear-gradient-83" x1="57.68" y1="445.71" x2="61.49" y2="445.71" gradientTransform="translate(351.82 42.95) rotate(44.72)" xlink:href="#linear-gradient-8"/><linearGradient id="linear-gradient-84" x1="51.21" y1="445.77" x2="54.97" y2="445.77" gradientTransform="translate(351.82 42.95) rotate(44.72)" xlink:href="#linear-gradient-8"/><linearGradient id="linear-gradient-85" x1="80.53" y1="435.4" x2="84.72" y2="435.4" gradientTransform="translate(351.82 42.95) rotate(44.72)" xlink:href="#linear-gradient-8"/><linearGradient id="linear-gradient-86" x1="75.2" y1="438.88" x2="79.41" y2="438.88" gradientTransform="translate(351.82 42.95) rotate(44.72)" xlink:href="#linear-gradient-8"/><linearGradient id="linear-gradient-87" x1="69.67" y1="441.97" x2="73.85" y2="441.97" gradientTransform="translate(351.82 42.95) rotate(44.72)" xlink:href="#linear-gradient-8"/><linearGradient id="linear-gradient-88" x1="97.19" y1="426.49" x2="101.2" y2="426.49" gradientTransform="translate(351.82 42.95) rotate(44.72)" xlink:href="#linear-gradient-8"/><linearGradient id="linear-gradient-89" x1="91.27" y1="428.74" x2="95.4" y2="428.74" gradientTransform="translate(351.82 42.95) rotate(44.72)" xlink:href="#linear-gradient-8"/><linearGradient id="linear-gradient-90" x1="85.78" y1="431.8" x2="89.96" y2="431.8" gradientTransform="translate(351.82 42.95) rotate(44.72)" xlink:href="#linear-gradient-8"/><linearGradient id="linear-gradient-91" x1="116.18" y1="424.74" x2="119.85" y2="424.74" gradientTransform="translate(351.82 42.95) rotate(44.72)" xlink:href="#linear-gradient-8"/><linearGradient id="linear-gradient-92" x1="109.86" y1="424.59" x2="113.44" y2="424.59" gradientTransform="translate(351.82 42.95) rotate(44.72)" xlink:href="#linear-gradient-8"/><linearGradient id="linear-gradient-93" x1="103.48" y1="425.13" x2="107.29" y2="425.13" gradientTransform="translate(351.82 42.95) rotate(44.72)" xlink:href="#linear-gradient-8"/><linearGradient id="linear-gradient-94" x1="134.78" y1="427.77" x2="138.72" y2="427.77" gradientTransform="translate(351.82 42.95) rotate(44.72)" xlink:href="#linear-gradient-8"/><linearGradient id="linear-gradient-95" x1="128.6" y1="426.48" x2="132.5" y2="426.48" gradientTransform="translate(351.82 42.95) rotate(44.72)" xlink:href="#linear-gradient-8"/><linearGradient id="linear-gradient-96" x1="122.43" y1="425.42" x2="126.24" y2="425.42" gradientTransform="translate(351.82 42.95) rotate(44.72)" xlink:href="#linear-gradient-8"/><linearGradient id="linear-gradient-97" x1="426.61" y1="75.48" x2="449.71" y2="75.48" gradientTransform="matrix(1, 0, 0, 1, 0, 0)" xlink:href="#linear-gradient"/><linearGradient id="linear-gradient-98" x1="44.86" y1="285.05" x2="67.96" y2="285.05" gradientTransform="matrix(1, 0, 0, 1, 0, 0)" xlink:href="#linear-gradient"/><linearGradient id="linear-gradient-99" x1="167.9" y1="134.32" x2="180.83" y2="134.32" xlink:href="#linear-gradient-16"/><linearGradient id="linear-gradient-100" x1="160.61" y1="407.66" x2="173.53" y2="407.66" gradientTransform="matrix(1, 0, 0, 1, 0, 0)" xlink:href="#linear-gradient-4"/></defs><title>register</title><g id="BACKGROUND"><rect class="cls-1" width="500" height="500"/></g><g id="OBJECTS"><path class="cls-2" d="M214.71,159.21a26.69,26.69,0,0,0,2.17,5.09c1.05,1.53,3,2.68,4.73,2.07,1.28-.44,2.3-1.74,3.65-1.64s2.22,1.68,2.47,3.08a11.27,11.27,0,0,1-.1,4.37c-.44,1.94-1.39,4-.63,5.81.66,1.57,2.33,2.39,3.83,3.18q1.59.83,3.09,1.8c1.72,1.1,3.51,2.62,3.57,4.66.06,1.69-1.11,3.14-2,4.6A14.9,14.9,0,0,0,234,203.79c.48,1.69,1.15,3.8-.18,4.94a16.69,16.69,0,0,0-6.11-.89c-1.16,0-2.31.22-3.47.25a13.89,13.89,0,0,1-7-1.75,5.5,5.5,0,0,1-2.82-3.05,6.81,6.81,0,0,1,.7-4.24c.57-1.41,1.13-2.83,1.7-4.24-.78-1.45-2.59-2-4.23-2.2s-3.41-.31-4.71-1.34a5.3,5.3,0,0,1-1.47-5.43,16.33,16.33,0,0,1,2.77-5.22,14.77,14.77,0,0,0,2.69-5.26c.61-3-.62-6-2.29-8.54s-3.81-4.73-5.35-7.34c-1.34-2.26-3.9-9.89,1.27-9.25C209.51,150.74,213.29,155.75,214.71,159.21Z"/><path class="cls-3" d="M217.41,171c-2.91-6.1-7-11.56-10.88-16.62l.41-.32c3.93,5.09,8,10.57,10.94,16.72a35.65,35.65,0,0,1,2.09,5.57l4.73-7.28.44.29-4.88,7.5-.18-.11a53.3,53.3,0,0,1,1.38,6.59c.16,1.07.3,2.18.43,3.25a38,38,0,0,0,2.08,9.83l.06.14,3.25-9.24.48.17-3.42,9.76c2.11,4.52,5.78,7.43,8.8,9.48l-.29.43c-3.12-2.12-6.92-5.14-9.06-9.87h0v0c-.1-.21-.2-.43-.29-.65a39.08,39.08,0,0,1-2.12-10c0-.3-.07-.61-.11-.91l-8.14-1.19.07-.51,8,1.16c-.07-.6-.15-1.2-.24-1.79A43.47,43.47,0,0,0,217.41,171Z"/><path class="cls-4" d="M233,207.75l-.33-.23c-3.1-2.1-6.92-5.12-9.13-9.88l-.22-.07.07-.24-.23-.53A39.19,39.19,0,0,1,221,186.73l-.08-.61-8.23-1.2.19-1.31,7.87,1.15c-.06-.42-.11-.84-.18-1.26a42.81,42.81,0,0,0-3.5-12.3c-2.89-6.07-6.94-11.5-10.84-16.55l-.24-.32,1-.8.25.32c3.94,5.1,8,10.6,11,16.78a36.5,36.5,0,0,1,1.87,4.81l4.48-6.89,1.1.72-5.1,7.84a56.43,56.43,0,0,1,1.27,6.2c.16,1.08.29,2.19.42,3.26a43,43,0,0,0,1.73,8.86l3-8.59,1.24.44-3.5,10c2.09,4.37,5.69,7.2,8.6,9.17l.33.23Z"/><path class="cls-5" d="M228.57,146.9a76.41,76.41,0,0,1-5.64-7.4c-4.42-6.47-10.17-15.45-7-23.61a12.23,12.23,0,0,1,6.32-6.73,6.59,6.59,0,0,1,4.52-.38c2.3.71,3.36,2.91,3.46,5.19.13,2.88-1,5.59-2.24,8.13a24.84,24.84,0,0,0-1.92,15.64,55.54,55.54,0,0,0,1.6,6.5A8.64,8.64,0,0,0,228.57,146.9Z"/><path class="cls-6" d="M239.88,163.92a48.81,48.81,0,0,0,.59-10.24,38.44,38.44,0,0,0-2.54-10.43c-.94-2.68-1.74-5.89.39-8.25s6.2-1.7,8.68,0C258.57,142.84,246.7,157.44,239.88,163.92Z"/><path class="cls-7" d="M229.39,224.87a21,21,0,0,1-2.15,1.63l-.87-1.32a22,22,0,0,0,6.4-6.7c5-7.92,7-18.88,6.17-33.52-.06-1-.13-2-.22-3-1.09-13.41-6.1-25.06-10.86-34.7-4.84-9.81-9.29-20.25-5.9-30.61l1.5.49c-3.2,9.8.92,19.51,5.82,29.42s9.9,21.6,11,35.27c.08,1,.15,2,.21,3.05.89,15-1.21,26.24-6.41,34.45A24.72,24.72,0,0,1,229.39,224.87Z"/><path class="cls-8" d="M237.69,167.74l-1.13-1.11c10.74-10.92,6.61-24.86,6.57-25l1.51-.47C244.69,141.31,249.11,156.13,237.69,167.74Z"/><path class="cls-9" d="M370.06,183.12s2.13-14.88-18.38-15.29C351.68,167.83,355.59,184.52,370.06,183.12Z"/><path class="cls-10" d="M385,217.79S393.75,230,408.8,216C408.8,216,394.41,206.74,385,217.79Z"/><path class="cls-11" d="M344.79,261.43c9.35-24,22.71-34.76,32.27-39.62,10.35-5.25,18.6-4.85,18.68-4.85l.08-1.29c-.35,0-8.63-.44-19.28,5-9.78,4.95-23.44,16-33,40.34Z"/><path class="cls-12" d="M365.83,229.47c12.64-16.94,11.45-30.93,8.23-39.69a38.21,38.21,0,0,0-10.16-15.1l-.83,1a37.45,37.45,0,0,1,9.79,14.6c4.44,12.11,1.65,25.4-8.07,38.41Z"/><path class="cls-13" d="M134,241.32A55.48,55.48,0,0,1,132,260.19l-.08.23-11.55-2.14c-8.73-2.44-15.67-6.84-20.66-13.07a42.15,42.15,0,0,1-8.19-18.29,65.18,65.18,0,0,1-.2-23.29l.06-.32,17.14,6.57,0,4.88,4.12-2.25.12,0c7.09,2.59,12.51,6.71,16.12,12.25A34.21,34.21,0,0,1,134,240.66C134,240.88,134,241.1,134,241.32Z"/><path class="cls-14" d="M132.36,232.57l-.52-.21-8,20.19c-2.19-2.18-4.24-4.38-6.17-6.57l10.19-22.32-.51-.23-10.09,22.1q-2.2-2.53-4.19-5l9.38-22.38-.52-.21L112.67,240c-2.11-2.68-4-5.29-5.74-7.79l7.1-18.85-.52-.19-7,18.48c-2.17-3.19-4-6.18-5.58-8.85l-.09-.15,5-13.47-.52-.19-4.87,13c-1.77-3.07-3.25-5.9-4.45-8.36l1.32-7.8-.55-.09-1.19,7a94.31,94.31,0,0,1-3.8-8.85l-.53.18a97.76,97.76,0,0,0,4,9.34l-4.76.35,0,.55,5-.36c1.21,2.48,2.71,5.33,4.49,8.43l-8.83.65,0,.55,9.1-.67.06.11c1.57,2.7,3.47,5.74,5.67,9l-12.39,1.77.07.55,12.67-1.81c1.73,2.51,3.65,5.13,5.76,7.82l-13.56,2.88.11.55,13.84-2.95c1.34,1.68,2.75,3.38,4.25,5.09l-10.57,5.15.24.5,10.71-5.22q2.9,3.28,6.17,6.56l-8,3.16.2.52,8.27-3.25c2.39,2.35,4.93,4.68,7.63,6.94l.36-.42c-2.69-2.26-5.23-4.58-7.61-6.92Z"/><path class="cls-15" d="M131.55,260.67l-.2-.16c-2.53-2.12-5.06-4.43-7.53-6.85L115.47,257l-.39-1,7.91-3.11c-1.95-1.95-3.84-4-5.78-6.16l-10.76,5.25L106,251l10.5-5.12c-1.35-1.56-2.68-3.15-3.94-4.73l-13.93,3-.22-1,13.42-2.86c-1.87-2.37-3.69-4.86-5.43-7.38l-12.77,1.82-.15-1,12.25-1.75c-1.94-2.87-3.77-5.77-5.44-8.64l-9.19.68L91,222.85l8.68-.64c-1.5-2.63-2.92-5.3-4.22-8l-5.07.37-.07-1,4.64-.35a94.47,94.47,0,0,1-3.88-9L91,204l1-.35.09.24S93.16,207,95.53,212l1.09-6.49,1,.17-1.34,8c1.27,2.59,2.66,5.22,4.14,7.81l4.77-12.77,1,.37-5.08,13.59,0,.06c1.63,2.8,3.42,5.63,5.31,8.43l6.88-18.27,1,.38-7.14,18.95c1.73,2.51,3.54,5,5.39,7.34l9.19-21.93,1,.41-9.41,22.47c1.23,1.55,2.52,3.1,3.84,4.61l10-22,1,.44-.1.22L118,245.94c1.91,2.16,3.85,4.23,5.79,6.16l8-20.06,1,.39-8.12,20.48c2.44,2.4,5,4.68,7.47,6.79l.19.16Zm-7.62-7.59.12.11c2.43,2.39,4.93,4.67,7.43,6.77l0,0c-2.5-2.1-5-4.38-7.43-6.78L124,253,132,232.71l-.05,0L123.92,253l-.27-.27c-2.06-2.05-4.14-4.26-6.18-6.57l-.11-.13,10.16-22.24,0,0L117.32,246l-.26-.29c-1.43-1.65-2.85-3.34-4.2-5l-.09-.11,9.34-22.28,0,0-9.33,22.25-.26-.34c-2-2.5-3.91-5.13-5.75-7.8l-.07-.11,0-.12,7-18.61,0,0-7,18.7-.27-.4c-2-2.94-3.89-5.92-5.6-8.86l-.15-.26,5-13.34-.06,0-5,13.3-.26-.46c-1.6-2.78-3.1-5.6-4.46-8.38l0-.07,1.29-7.64H97l-1.27,7.56-.34-.71c-2.22-4.6-3.42-7.78-3.73-8.64l-.06,0c.33.89,1.61,4.26,3.94,9.07l.16.33-4.88.36v.05l4.9-.36.07.16c1.38,2.8,2.88,5.63,4.48,8.41l.2.35-9,.66v.05l9-.66.11.19c1.76,3,3.67,6,5.7,9l.23.33L94,234v.06l12.57-1.8.09.13c1.84,2.67,3.77,5.29,5.75,7.8l.25.32L99,243.45l0,.06,13.74-2.92.09.12c1.36,1.7,2.78,3.4,4.24,5.08l.22.24-10.64,5.19,0,.05,10.65-5.2.13.15c2.06,2.34,4.08,4.48,6.16,6.54l.27.27-8.16,3.21,0,.06Z"/><path class="cls-16" d="M33.29,367a4.78,4.78,0,0,0-.29,1.61s12.2,7.63,14.83,9.39H344.34a5.42,5.42,0,0,0,.08-.81S331.51,369,328.37,367Z"/><path class="cls-17" d="M367.27,233.12s-17-.5-36.5,0-34.5,2.5-41-7.5,5.25-39,0-58.25-11-39.75-25.25-41.5-19.25,11-19.25,11l3.5,43L203.93,240v112.9c15,19.66,34.67,21.25,34.67,21.25h93.54s10.88,2,16.75-7.25S348.14,348,346.31,347a2.47,2.47,0,0,1-1-3c.08-1.25,1.75-1.58,1.75-1.58,4.91.16,13.5-2.75,15.91-13.59s-8.5-18.5-8.5-18.5A1.39,1.39,0,0,1,355,308c3.25.75,17.16-1.42,19-14.42s-7.34-20.25-9.42-20.66a1.44,1.44,0,0,1-1.08-2.25c18.5-2.25,18-17.25,18-17.25C382.52,238.37,367.27,233.12,367.27,233.12Z"/><path class="cls-18" d="M192,240H123.37a4.94,4.94,0,0,0-4.94,4.94V368.05a4.94,4.94,0,0,0,4.94,4.94H192a4.94,4.94,0,0,0,4.93-4.94V244.93A4.94,4.94,0,0,0,192,240ZM178.58,363.74a7.56,7.56,0,1,1,7.56-7.56A7.55,7.55,0,0,1,178.58,363.74Z"/><path class="cls-19" d="M319.15,279.72a39.54,39.54,0,0,1,1.08-6.36l-6.86-1.68a34.23,34.23,0,0,1-.62,6.93,1.16,1.16,0,0,1-.68.66Z"/><path class="cls-20" d="M310.37,281a5.74,5.74,0,0,1,9.12-1.92,7.61,7.61,0,0,1,1.79,2.87,3.07,3.07,0,0,1,.23,2c-.23.75-.54.74-1.21.74-1.06,0-2.12,0-3.18,0-2.11,0-4.24.15-6.35.05a3,3,0,0,1-.74-.07.38.38,0,0,1-.2-.23C309.34,283.28,309.89,282.08,310.37,281Z"/><path class="cls-20" d="M333.47,222.14s2,.36.68,5.6-13.55,47.31-13.55,47.31l-7.67-.91s.21-32.6,10.14-49.51C323.07,224.63,327.1,217,333.47,222.14Z"/><path class="cls-21" d="M334.6,224.5s-.56-7.22-11-7.5l6.79,24.05S334.57,227.87,334.6,224.5Z"/><polygon class="cls-20" points="307.74 231.91 317.88 237.36 326.87 230.28 327.25 216.77 307.74 231.91"/><path class="cls-22" d="M328.24,206.94s-.94-3.63-1-3.84a37,37,0,0,1-.12-10.77,51.14,51.14,0,0,1,1.85-8.69c.76-2.49,2.8-10.95,7.51-7.72a4.61,4.61,0,0,1,1.78,3.4c.62,5.62-3.2,24.52-3.2,24.52Z"/><path class="cls-22" d="M316.6,204.38s0,7.76,4.3,8.64c1.68.35,16.78.53,20.39-.28,1.25-.28,2.66-.78,3.08-2a3.78,3.78,0,0,0,0-1.89,5.42,5.42,0,0,0-1.16-2.87c-1.05-1.11-2.51-1.07-3.9-1.28-1.12-.17-2.24-.45-3.36-.64a81.81,81.81,0,0,0-11.57-1.32C322.18,202.69,318.21,202.4,316.6,204.38Z"/><path class="cls-23" d="M322.11,170l-12.38,1.72a148.25,148.25,0,0,1-3,24.48,25.14,25.14,0,0,1-2.06,6.52,23.62,23.62,0,0,1-3.73,4.55c-1.19,1.3-2.31,2.73-3.4,4.13a43.08,43.08,0,0,0-3.05,4.4,27.56,27.56,0,0,0-1.61,3.79L335,222.27s-5.35-6.56-4.44-13.16a56.28,56.28,0,0,1,1.8-7.57c1.11-4,2.34-8,3.59-12,.41-1.3.75-2.62,1.18-3.91a13.43,13.43,0,0,0,.89-3.43,11.94,11.94,0,0,0-.69-3.73,5.76,5.76,0,0,0-2.56-3.75A63.51,63.51,0,0,0,322.11,170Z"/><path class="cls-22" d="M330.52,209.11c.08-.39.13-.78.2-1.18a136.84,136.84,0,0,1,3.62-13.3c.76-2.51,1.55-5,2.35-7.53,1-3.16,2.77-7.95.19-10.9-1-1.17-3.72-2.27-5.08-2.91,0,0,.61,4.61-4.83,5a7.29,7.29,0,0,1-6.06-2.19,12,12,0,0,1-3-5.5s0,0,0-.07c-3.67.51-8.9,1.14-8.9,1.14-.44,8.18-.53,16.48-2.33,24.48a25.14,25.14,0,0,1-2.06,6.52,23.62,23.62,0,0,1-3.73,4.55c-1.19,1.3-2.31,2.73-3.4,4.13a43.08,43.08,0,0,0-3.05,4.4,27.56,27.56,0,0,0-1.61,3.79L335,222.27S329.61,215.71,330.52,209.11Z"/><path class="cls-24" d="M305.77,205.28s-1.27-3.39-1.33-3.59A44.26,44.26,0,0,1,303,190.08a48.37,48.37,0,0,1,1-8.53c.52-2.47,1.75-10.8,6.74-8.15a4.36,4.36,0,0,1,2.09,3.09c1.14,5.34-.88,23.87-.88,23.87Z"/><path class="cls-25" d="M302.34,200.68a3.36,3.36,0,0,1-.23-2.08c.09-.64.19-1.28.33-1.91a5.18,5.18,0,0,1,1.78-3.21,2.55,2.55,0,0,1,.7-.35,3.5,3.5,0,0,1,.71-.17c4.53-.52,12.05,1.6,25.48,1.81l-.83,6c-2,.27-3.95.49-5.92.69-4,.4-8.06.72-12.1.78-3.1.05-6.33.28-9.24-1A1.42,1.42,0,0,1,302.34,200.68Z"/><path class="cls-23" d="M328.34,195.87l.66-.32.09,0,5.78-2a.83.83,0,0,1,.75.1l6.93,4.74a.79.79,0,0,1,.28.32h0a.83.83,0,0,1-.67,1.2l-.91.08a1,1,0,0,1-.47-.09l-2.42-1.28a.8.8,0,0,0-.57-.08,43.13,43.13,0,0,1-8.07,1.13.84.84,0,0,1-.82-.69Z"/><path class="cls-22" d="M302.74,204.74c-.31.07-1.2-5.88-1.27-6.49a38,38,0,0,1,.06-9.47,51.17,51.17,0,0,1,1.9-8.68c.77-2.48,2.85-10.94,7.54-7.68a4.57,4.57,0,0,1,1.76,3.4c.59,5.63-3.32,24.51-3.32,24.51Z"/><path class="cls-22" d="M302.79,204.71a1.57,1.57,0,0,1-.13-.42c-.51-2.7-.27-7,3-7.82,4.42-1.14,12.16-.08,25.49-1.71v6.1c-1.91.54-3.84,1-5.77,1.5-3.92.95-7.87,1.82-11.87,2.44-3.06.47-6.76,1.21-9.82.33-.28-.08-.65-.11-.83-.37Z"/><path class="cls-19" d="M321.71,163.56l-1.06,6.6s.24,8.2,9.37,5.35l1.39-10.36Z"/><path class="cls-23" d="M324.8,155.47l-.92,3.73-1.4,5.68-.4,1.6c2.81,6.76,8.81,8.26,11.07,6.45s4.8-13.62,4.8-13.62Z"/><path class="cls-19" d="M340.36,206.06s-1.06,3.76.32,4.89,2.32.91,3.24-.15S344.49,204.57,340.36,206.06Z"/><polygon class="cls-20" points="346.24 207.25 334.01 207.25 344.33 188.53 356.56 188.53 346.24 207.25"/><polygon class="cls-20" points="332.78 206.35 334.01 207.25 344.33 188.53 343.1 187.63 332.78 206.35"/><polygon class="cls-20" points="343.1 187.63 355.33 187.63 356.56 188.53 344.33 188.53 343.1 187.63"/><path class="cls-19" d="M342.79,211.5l.65-.36.08,0,5-3.57a.81.81,0,0,0,.35-.67l.11-8.39a.77.77,0,0,0-.1-.42h0a.84.84,0,0,0-1.37-.13l-.59.69a.87.87,0,0,0-.19.44l-.35,2.71a.77.77,0,0,1-.26.51,42.55,42.55,0,0,0-5.57,6,.82.82,0,0,0,.09,1.06Z"/><path class="cls-26" d="M334.67,206.77c-2.17-1.7-5.66-1.18-8.21-1.08-4.31.17-8.58.75-12.88,1-5.24.35-10.86,1.11-15.32,4.12-5.45,3.69-7.32,10.15-5.76,16.4a8.08,8.08,0,0,0,5.33,5.36,21.37,21.37,0,0,0,6.67.73l6,0c2.62,0,4.47-1.66,6.69-2.94,2.47-1.43,4.87-3,7.33-4.41,3.45-2,7.23-3.46,10.46-5.86,1.18-.88,1.59-4.85,1.73-6.23.23-2.28.12-5-1.58-6.76A4,4,0,0,0,334.67,206.77Z"/><path class="cls-23" d="M369.66,271.83l-.07-.08a6.65,6.65,0,0,0-.93-.83l.38.2-.39-.2a11.74,11.74,0,0,0-2.34-1.27l-.78-.33-2.59-1.3-.14-.09h0c-.5-.48-6.75-6.58-8.89-9S350.1,251,350.1,251l-6.67,2.28a30.5,30.5,0,0,1,3,5.83c.21.75-1,1.63-1.57,2.78a1.42,1.42,0,0,1-.08.18l.11,0-.09,0c-1,.42-1.5,3.31-1.62,4.23a3,3,0,0,0,.1,1.52,3.22,3.22,0,0,0,1.76,1.54c1.48.69,3.08,1.1,4.59,1.72,2.78,1.14,5.53,2.7,8.46,3.62,3.24,1,6.66.93,10,1.32.89.1,2.28,0,2.67-.95S370.26,272.53,369.66,271.83Z"/><path class="cls-27" d="M343.18,266a4.48,4.48,0,0,1,.09-.64A3.65,3.65,0,0,0,343.18,266Z"/><path class="cls-27" d="M358.35,269.62h0Z"/><path class="cls-27" d="M358,269.51l-.32-.11Z"/><path class="cls-27" d="M361.81,268.85l.17-.14Z"/><path class="cls-27" d="M362.23,268.5l-.08.08A.3.3,0,0,1,362.23,268.5Z"/><path class="cls-20" d="M370.82,274.66a1.89,1.89,0,0,0,0-.41,3.58,3.58,0,0,0-.09-.45,4,4,0,0,0-.15-.45,1.47,1.47,0,0,0-.1-.22,6.15,6.15,0,0,0-.52-.92c-.06-.08-.11-.16-.17-.23h0l-.12-.14-.07-.08a4,4,0,0,0-.29-.29l-.12-.12-.15-.12-.37-.3.38.2-.39-.2a10.11,10.11,0,0,0-1.13-.7L367,270l-.1-.05-.56-.25-.78-.33-2.59-1.3-.08,0-.06,0c-.4-.38-4.4-4.29-7.11-7.12-2.32,2.51-7.46,2.13-10.11-.13a4.23,4.23,0,0,1-.46.67c-.32.49-.73.92-1,1.43-.05.08-.09.18-.14.27a6,6,0,0,0-.22.56c-.05.14-.1.29-.14.44s-.12.41-.16.62-.06.22-.08.33c-.12.53-.19,1-.23,1.3a6.64,6.64,0,0,0-.05.77c0,.07,0,.13,0,.2a2.1,2.1,0,0,0,.13.55,1.85,1.85,0,0,0,.3.51,2.09,2.09,0,0,0,.2.22,4.61,4.61,0,0,0,1.26.81,23.39,23.39,0,0,0,2.28.89l1.16.4c.39.13.77.28,1.15.43,1.22.5,2.43,1.08,3.65,1.65.87.41,1.75.81,2.65,1.18.71.29,1.43.56,2.16.79l.61.18.61.15c.4.1.8.17,1.2.24l.66.11c.63.09,1.25.16,1.88.22,1.68.15,3.37.22,5,.42a5.65,5.65,0,0,0,.93,0,1.93,1.93,0,0,0,1.74-1,1.59,1.59,0,0,0,.1-.39Zm-5.33-5.36-.64-.27-.05,0a12.73,12.73,0,0,1-1.86-1h0Z"/><path class="cls-26" d="M333.76,207.17s1.68-.75,3.36,3.84,13.94,42.32,13.94,42.32l-6.21,3.21s-16.43-24.5-17.6-42.21C327.25,214.33,326.39,206.58,333.76,207.17Z"/><path class="cls-20" d="M322.65,159s1.5-.89,1.5,2.92l1.74-6.09s7.49,5.16,11.83,4.56a12.44,12.44,0,0,0,7.08-3.83s-6.6-2.14-7.14-3.75-3.91-8.45-11.77-5.65c0,0-2.81.95-3.17,2.92,0,0-2.73.59-2.79,2.91s-2.3,9.52,1.3,13.66Z"/><path class="cls-23" d="M321.35,158.69c-1.44,1.07-1.5,4.3,1.13,6.19l1.3-5.27A1.63,1.63,0,0,0,321.35,158.69Z"/><polygon class="cls-19" points="335.13 163.68 333.28 168.48 336.02 169.54 335.13 163.68"/><path class="cls-20" d="M287.19,353.84c-.22-1.61.61-3.16,1-4.73,1.14-4.19-.63-8.73-3.43-12.05-1.47-1.73-3.24-3.26-4.28-5.28-2-3.86-.92-8.55-1.65-12.84a15.33,15.33,0,0,0-7.06-10.35c-4.73-2.85-10.91-3.33-15,.69-2.79,2.74-5.38,6-6,9.84s.8,7.68-.08,11.39a14.43,14.43,0,0,1-2.5,5c-1.4,1.94-3.12,4-3,6.34.1,2.65,2.44,4.82,2.57,7.48.07,1.61-.69,3.13-1.07,4.71a11.18,11.18,0,0,0,3.05,10.15,13.64,13.64,0,0,0,7.06,3.73c1.11.23,2.2.08,3.29.24,1.3.19,2.49,1.07,3.71,1.53v-.18a2.81,2.81,0,0,0,2.27.61,10.83,10.83,0,0,0,3-1.22c5.23-2.54,11.67-1.92,16.66-4.9,1.88-1.13,3.6-3.07,3.35-5.25C288.84,357,287.42,355.59,287.19,353.84Z"/><path class="cls-23" d="M269.37,326l-5.37,2.1-5.58-1.47c3.93,5.67.79,10.36.79,10.36a9.37,9.37,0,0,0,10.58-.62S266.12,332,269.37,326Z"/><path class="cls-23" d="M264,310.5c-3.43.24-6.19,2.71-7.72,6,.14,2.34.31,4.68.45,7a23.42,23.42,0,0,0,1,6.07,8.17,8.17,0,0,0,4.28,4.62,12,12,0,0,0,3.37,1.31l.07,0,.06,0a12.67,12.67,0,0,0,3.21-1.7,8.24,8.24,0,0,0,3.71-5.08,23.51,23.51,0,0,0,.29-6.14c-.13-2.34-.23-4.68-.37-7C270.43,312.48,267.39,310.34,264,310.5Z"/><path class="cls-20" d="M273.26,312.63a8.44,8.44,0,0,0-2-1.69,4,4,0,0,0-.46-.24l0-.07,0,.06a12.76,12.76,0,0,0-3.38-1,17.47,17.47,0,0,0-9.21.95,9.82,9.82,0,0,0-5,4.43c-.89,1.78.31,6.7.68,8.53a144,144,0,0,0,15.52-7.71s2.83,9.24,5.88,18.23C275,330.91,275.76,315.35,273.26,312.63Z"/><path class="cls-23" d="M254.15,322.55c-.83,1.73.55,5.46,3.77,6.69l-1.16-6.49C256.3,321.85,254.69,321.41,254.15,322.55Z"/><polygon class="cls-19" points="264.25 324.28 263.67 329.61 264.78 330.42 265.68 329.36 264.25 324.28"/><path class="cls-23" d="M282,346.09l6.39,19.22-6.45,5.37c-.94-2.95-5.75-21.43-5.86-22.57a2.83,2.83,0,0,1,2-3S280.78,344.22,282,346.09Z"/><path class="cls-23" d="M281.19,368.05s-.07,2.15,19.77,17.32l3-2.88S292.45,370.66,289.69,367,288.5,363.51,281.19,368.05Z"/><path class="cls-28" d="M279,371.17l-16.3,9.2-16-9.69s-8,24.95,8.24,24.91a15.54,15.54,0,0,0,7.57-1.58,15.62,15.62,0,0,0,7.51,1.81C286.29,396.35,279,371.17,279,371.17Z"/><path class="cls-19" d="M246.92,347.23s-5.74,18-2.44,23.14l4.27,1c.58-3,4.32-21.73,4.29-22.87a2.81,2.81,0,0,0-2.38-2.77S247.91,345.23,246.92,347.23Z"/><path class="cls-29" d="M253.35,339.11c-.77.18-1.5.47-2.26.67l-.27.22a10.66,10.66,0,0,0-2.45,3.16,33.27,33.27,0,0,0-3.27,9c-.21,1.05-.57,3.72-.57,3.72l13.31,1.5-3.61-18.52Z"/><path class="cls-29" d="M274.36,337.1c.78.07,1.55.25,2.33.33l.3.18a10.73,10.73,0,0,1,2.89,2.76,33,33,0,0,1,4.56,8.44c.37,1,1.12,3.59,1.12,3.59l-12.95,3.45.83-18.84Z"/><path class="cls-23" d="M280.07,353.67c-.88-5.38-4.25-10.29-3.85-15.83a3.17,3.17,0,0,0-1-.54c-2.74-.9-6.15-1.86-7.55-2.32a4.29,4.29,0,0,0-1.67-.21l-1.42.08v-.1h.58l-2.43.15v.1l-1.42.12a4.63,4.63,0,0,0-1.62.46c-1.32.67-4.83,2.13-7.4,3.43a2.92,2.92,0,0,0-.9.69c1.22,5.41-1.12,10.75-1.19,16.2-.05,3.8,1.26,5.12,3.63,7.82,2.54,2.89,2.19,8.66,1.75,14-.18,2.19,23.41.44,22.91-1.7-1.22-5.22-3-10.83-.88-14.06C279.58,358.92,280.68,357.42,280.07,353.67Z"/><path class="cls-30" d="M280.34,353.65c-.87-5.38-3.7-10.33-3.3-15.87a3.19,3.19,0,0,0-1-.55,40.68,40.68,0,0,0-5-1.54c.18.37-1.08,4.48-6,4.63-6.28,0-7.63-3.89-7.63-3.89A56.77,56.77,0,0,0,252,339a3.08,3.08,0,0,0-.9.69c1.21,5.42-1.12,10.75-1.2,16.2-.05,3.8,1.26,5.12,3.64,7.82,2.54,2.89,0,8.32-2.17,14.77-.71,2.08,27.88,3.27,27.38,1.12-1.23-5.21-3-14.46-.88-17.7C279.86,358.9,281,357.4,280.34,353.65Z"/><rect class="cls-20" x="261.64" y="334.41" width="7.25" height="15.8" transform="translate(504.44 703.32) rotate(-175.75)"/><path class="cls-23" d="M258.27,348.35s-13.86,12-14.8,15.06c-.4,1.3-.71,3.28,0,4.51.89,1.5,3,1.45,4.44,1.06,3.3-.86,5-4.87,6.82-7.39.91-1.23,6.14-9.33,6.52-9.85l6.11-5.29a1.76,1.76,0,0,0,.13-1.61c-.2-.61-.78-.64-1.09-1.14a1.89,1.89,0,0,1-.1-1.2c.06-.65-.43-.73-.88-1.08a5,5,0,0,1,.1-1.25,8.08,8.08,0,0,0,.14-1.3c-.05-.59-.57-.67-1.06-.71l-3,4.57.33-3-1.33,1.13-1.17,5Z"/><polygon class="cls-31" points="240.59 416.46 240.51 418.88 240.26 424.28 239.02 424.12 233.67 420.84 234.1 417.96 235 415.29 240.59 416.46"/><path class="cls-23" d="M239.69,422.18c.69-5.12,1.63-9.65,2.19-11.93l-7.25-.77a137.5,137.5,0,0,1-1.81,22.19l3.2.34.11,2.72,1.83-1.47.39-1,.46.05c0-.45,0-.91.05-1.38l1.64-4.19Z"/><path class="cls-32" d="M232.37,427c.26-2,.6-4.07,1-6.09a19.73,19.73,0,0,1,1-3.86c0,1.26,0,2.52.08,3.78l.06,1.59a4.61,4.61,0,0,0,.21,1.61,3.61,3.61,0,0,0,1.63,1.69,2.71,2.71,0,0,0,2.23.41c.78-.32.93-1.27.92-2s0-4.77,1.05-5.45c0,0-.05,1.54,0,3.71a57.57,57.57,0,0,1,.29,6.29c-.16,2-.23,4.22-1.22,6.07a6.18,6.18,0,0,1-1.42,1.79,3.31,3.31,0,0,1-1.09.71,2.69,2.69,0,0,1-1,.15v0l-.18,0-.17,0v0a2.76,2.76,0,0,1-.9-.34,3.58,3.58,0,0,1-.93-.93,9.46,9.46,0,0,1-1.78-4.29A18.32,18.32,0,0,1,232.37,427Z"/><path class="cls-26" d="M257.26,362.31s2.05.48.39,5.83S241,416.35,241,416.35L233.1,415s2-33.73,13.26-50.68C246.36,364.3,251,356.66,257.26,362.31Z"/><polygon class="cls-31" points="256.12 412.4 254.64 414.31 251.41 418.64 252.47 419.31 258.68 420.18 260.18 417.69 261.18 415.05 256.12 412.4"/><path class="cls-23" d="M265.16,410.8l-6.08-4c-1,2.11-3.18,6.2-5.9,10.6l-3.53,3-1.4,4.27-.84,1.1.4.26-.34,1,.47,2.3,1.82-2,2.69,1.77A136.72,136.72,0,0,1,265.16,410.8Z"/><path class="cls-32" d="M255.77,425.75c1.1-1.74,2.13-3.52,3.13-5.31a20.25,20.25,0,0,0,1.68-3.63c-.81,1-1.64,1.93-2.47,2.88l-1.06,1.19a4.45,4.45,0,0,1-1.19,1.1,3.53,3.53,0,0,1-2.33.26,2.67,2.67,0,0,1-2-1.09,2,2,0,0,1,.58-2.14c.49-.59,3-3.68,2.65-4.87,0,0-.94,1.22-2.37,2.85a56.58,56.58,0,0,0-4.22,4.68c-1.18,1.67-2.51,3.4-2.92,5.45a6.53,6.53,0,0,0-.05,2.29,3.73,3.73,0,0,0,.39,1.24,3.16,3.16,0,0,0,.65.73v0l.15.09.14.1v0a2.86,2.86,0,0,0,.92.31,3.54,3.54,0,0,0,1.3-.13,9.44,9.44,0,0,0,4.1-2.17A18.66,18.66,0,0,0,255.77,425.75Z"/><path class="cls-26" d="M277.7,360s-1.89-.93-4,4.25-17.8,47.81-17.8,47.81l6.95,3.95s19.89-27.32,22-47.53C284.84,368.48,286.16,359.66,277.7,360Z"/><path class="cls-23" d="M310.3,382h-7.69L301,385.37,307,388l4.21,1.7h2.31s.53-.15-.11-.73a4.72,4.72,0,0,0-2.17-.74l-1.08-1a6.42,6.42,0,0,1,1.5-1.2s5.18,1.11,6.63,1.67a2.21,2.21,0,0,0,2.44-.89Z"/><path class="cls-20" d="M429.7,258a19.05,19.05,0,0,1,4.31,5c3.05,5.13,3.9,11.27,4.19,17.24.17,3.62.19,7.37,1.63,10.7,1.72,4,5.25,6.89,8.88,9.29,2.69,1.79,5.63,3.52,7.22,6.34a9.33,9.33,0,0,1-2.81,11.89c-2.52,1.7-6,2.28-7.46,5s-.24,6.71-2.75,8.43c-1.66,1.13-4,.38-5.59-.84-2.38-1.8-4-4.53-6.68-5.93-2.15-1.13-4.67-1.24-7.09-1.42a85.74,85.74,0,0,1-9.85-1.35,9.08,9.08,0,0,1-3-1,7,7,0,0,1-2.84-4.32c-1.45-5.44.69-11.1,2.07-16.55.71-2.79,1.23-5.73.54-8.52a33.11,33.11,0,0,0-1.66-4.38c-1.78-4.44-2.38-9.46-3.63-14.07a17.61,17.61,0,0,1,1.66-13.16,10,10,0,0,1,4-4.16c3.06-1.55,6.87-.76,10.14-1.38C424.07,254.26,427.38,256.13,429.7,258Z"/><path class="cls-20" d="M404.67,372.12c-1.48-8.34-1.14-17-.61-25.4.27-4.17,3.59-19.28,4.15-23.43,1.08-7.87,2.59-6.23,11.86-3.47a9.36,9.36,0,0,1,3.21,1.7c11.2,9,2.71,27-1.33,37.21-1.75,4.43-3.6,8.83-5.63,13.14C409.81,376.69,404.67,372.12,404.67,372.12Z"/><path class="cls-19" d="M406.49,428a10.17,10.17,0,0,0-.28-2.17c0-.2-.27-2.15-.24-2.37.41-3.07,2.41-11.41,2.41-11.41L400,410.51s-.06,7.51-2,11.6h0c-4.08,1.43-11.22,3-11.22,3s-7.73-.08-8.16,0a7.25,7.25,0,0,0-2.75,1s-1.21,1.79,7.93,4.91a31.74,31.74,0,0,0,10.61,1.7l4.3.37c1.47.12,5.84.74,6.48.42a1.86,1.86,0,0,0,.56-.42C406.72,432,406.43,429.49,406.49,428Z"/><path class="cls-33" d="M398.69,433.19l-4.3-.37a31.74,31.74,0,0,1-10.61-1.7c-9.14-3.12-7.93-4.91-7.93-4.91a7.25,7.25,0,0,1,2.75-1c.43-.1,8.16,0,8.16,0h0c.77,2.59,2.06,4,5.22,3.83,5.05-.24,9.39-2.18,14.47-.74,0,1.49.19,3.81-.76,5a1.86,1.86,0,0,1-.56.42C404.53,433.93,400.16,433.31,398.69,433.19Z"/><path class="cls-20" d="M407.53,416.13c3.37-9.61,9.65-30.94,7.93-44.05,0,0-1.5-4.84-9-2.73,0,0-1.88-.43-2.66,4.63-.6,3.85-3.57,28.57-5,40.25Z"/><path class="cls-26" d="M416.24,373.7c-2.6-8.06-3.41-16.68-4-25.09-.3-4.17,1-19.59,1-23.78,0-7.94,1.73-6.51,11.28-5a9.33,9.33,0,0,1,3.42,1.24c12.31,7.45,6.31,26.41,3.68,37.06-1.14,4.62-2.38,9.23-3.81,13.78C422,377.54,416.24,373.7,416.24,373.7Z"/><path class="cls-23" d="M441.25,424.58a10.61,10.61,0,0,0-1.15-1.86c-.11-.17-1.13-1.86-1.19-2.06-.89-3-2.48-11.4-2.48-11.4l-8.32,2s3,6.87,2.94,11.39h0c-3.14,3-9,7.37-9,7.37s-7.09,3.1-7.43,3.37a6.86,6.86,0,0,0-2.08,2.07s-.38,2.13,9.24,1.22a31.7,31.7,0,0,0,10.37-2.79l4.07-1.42c1.39-.49,5.64-1.73,6.09-2.28a1.8,1.8,0,0,0,.34-.61C443.08,428.1,441.79,425.94,441.25,424.58Z"/><path class="cls-33" d="M436.24,432.49l-4.07,1.42a31.7,31.7,0,0,1-10.37,2.79c-9.62.91-9.24-1.22-9.24-1.22a6.86,6.86,0,0,1,2.08-2.07c.34-.27,7.43-3.37,7.43-3.37l0,0c1.77,2.05,3.51,2.79,6.33,1.36,4.5-2.29,7.68-5.84,12.9-6.6.57,1.37,1.73,3.4,1.34,4.83a1.8,1.8,0,0,1-.34.61C441.88,430.76,437.63,432,436.24,432.49Z"/><path class="cls-26" d="M437.32,413.3c-.86-10.15-3.88-32.18-10.82-43.43,0,0-3.35-3.8-9.29,1.18,0,0-1.89.38-.53,5.32,1,3.75,8.45,27.52,12,38.75Z"/><path class="cls-19" d="M388.75,286l-5.85-5.87a2.44,2.44,0,0,0-.43,1.92c.32.85,0,1.56.21,2.35s-.25,2.81.39,4,2.75,1.67,3.45,2.79,2,3.61,2,3.61l4.11-2.63-1.95-3.26s.46-4.3-1.91-6.52Z"/><polygon class="cls-20" points="384.74 287.76 392.51 288.19 388.48 270.66 380.67 270.97 384.74 287.76"/><polygon class="cls-20" points="393.54 287.44 392.51 288.19 388.48 270.66 389.51 269.91 393.54 287.44"/><polygon class="cls-20" points="389.51 269.91 381.7 270.22 380.67 270.97 388.48 270.66 389.51 269.91"/><path class="cls-19" d="M384.16,280.08l-1.54,3.42,1.52,5.24,2.75-6.14s-.62-.84-1.12,0l.5-1.5S386.5,279.41,384.16,280.08Z"/><path class="cls-34" d="M401.4,316.8a11.71,11.71,0,0,0,3.82-3,44.46,44.46,0,0,0,5.7-9.74,61.61,61.61,0,0,0,3-8.75c.69-2.61,3.48-11.23-1.93-10.41a5.1,5.1,0,0,0-3.18,2.29c-3.41,4.84-10.21,23.75-10.21,23.75Z"/><path class="cls-34" d="M401,317.07s5.48-2.57,3.72-6.85-7.32-9.92-14.08-21.75l-3.86,2.88S396,315.21,401,317.07Z"/><path class="cls-23" d="M406,301c.28-2.87,6.13-16,6.13-16a22.09,22.09,0,0,0,2.65-.66,12.07,12.07,0,0,0,.16-4.25L421,274c-.71,6.64,2,9,2,9,1,.05,4,.21,5.44.39a6.94,6.94,0,0,1,4.55,2.51s-3.64,13.64-3.85,20.6S433,328.91,433,328.91l-25.18-.07A168.09,168.09,0,0,0,410.69,312C411.39,306.7,405.5,306.19,406,301Z"/><path class="cls-33" d="M405.43,301c.28-2.87,6.7-16,6.7-16a4,4,0,0,0,3.16,1.62,11.15,11.15,0,0,0,9.52-3.52c.95.05,2.2.15,3.6.33a6.94,6.94,0,0,1,4.55,2.51s-3.64,13.64-3.85,20.6,6.73,26.37,6.73,26.37l-30-.07c1.71-7,4.87-20.84,4.87-20.84C411.39,306.7,404.93,306.19,405.43,301Z"/><path class="cls-34" d="M410.69,312c.3-2.28-1.54-4.8-3.1-6.08,8.47,1.72,15.71,2,19.94,2.84-.13,0-.33-4.77-.37-5.23-.16-1.82-.35-3.64-.49-5.46-.34-4.38-1.47-10.17,2.44-13.41a2.07,2.07,0,0,1,1.91-.36,6.61,6.61,0,0,1,1.94,1.64s-3.64,13.64-3.85,20.6a60.39,60.39,0,0,0,1.45,11.78c-4.95-.25-13.63-3-20.09-5.38A4.34,4.34,0,0,1,410.69,312Z"/><path class="cls-23" d="M418.28,294.8l-.22-.7a.3.3,0,0,0,0-.1l-2.53-5.59a.85.85,0,0,0-.59-.47l-8.23-1.74a.78.78,0,0,0-.43,0h0a.84.84,0,0,0-.4,1.32l.57.71a.77.77,0,0,0,.39.27l2.77.69a.81.81,0,0,1,.45.36,42.84,42.84,0,0,0,4.77,6.63.82.82,0,0,0,1.06.12Z"/><path class="cls-33" d="M436.53,318.21s1.31-3.74,1.34-3.95a44.44,44.44,0,0,0,.06-11.29,62.67,62.67,0,0,0-1.73-9.1c-.71-2.6-2.6-11.46-6.88-8.05a5,5,0,0,0-1.6,3.57c-.54,5.89,3,25.68,3,25.68A64.43,64.43,0,0,0,436.53,318.21Z"/><path class="cls-33" d="M434.11,320.69s5.47-3.91,2.68-8.24-10-9.36-19.79-20.92l-3.64,3.93S428.27,319.67,434.11,320.69Z"/><path class="cls-23" d="M409.93,263.16s-3.14,13,1.65,17.24c0,0,8.15,1,12-5.84S422.16,257.17,409.93,263.16Z"/><polygon class="cls-19" points="410.94 269.43 410.94 274.82 408.37 274.82 410.94 269.43"/><path class="cls-35" d="M410.94,258.47s.76,5.63,10.71,11.44l4.5-1.5s3.16-12.17-6.35-11.77Z"/><path class="cls-36" d="M407.37,265.23s6.47-2.39,9.19-6.1C416.56,259.13,410.39,257,407.37,265.23Z"/><path class="cls-23" d="M421.92,269.73s1.36-2.92,2.87-1.59.47,6.79-2.87,7.9Z"/><path class="cls-19" d="M136.21,205.28S131.55,223.17,135,228l4.21-.08c.4-3,3.09-20.59,3-21.7a2.76,2.76,0,0,0-2.47-2.58S137.06,203.27,136.21,205.28Z"/><path class="cls-19" d="M177.38,205.28S182,223.17,178.54,228l-4.22.78c-.4-3-3.07-21.45-3-22.56a2.74,2.74,0,0,1,2.46-2.58S176.52,203.27,177.38,205.28Z"/><path class="cls-37" d="M139.47,193c-3.93,3.13-5.65,17.91-5.65,17.91l13.16.68-3.89-20.07C142.78,191.57,139.57,192.88,139.47,193Z"/><path class="cls-37" d="M173.86,193c3.93,3.13,5.64,17.91,5.64,17.91l-13.15.68,3.89-20.07C170.55,191.57,173.76,192.88,173.86,193Z"/><path class="cls-27" d="M175.8,278.75a3.86,3.86,0,0,1,.09-.49A2.21,2.21,0,0,0,175.8,278.75Z"/><path class="cls-27" d="M187.49,281.93h0Z"/><path class="cls-27" d="M187.21,281.84l-.25-.1Z"/><path class="cls-27" d="M190.19,281.42l.14-.11Z"/><path class="cls-27" d="M190.52,281.15l-.06.06Z"/><path class="cls-32" d="M188,233.1c0-.14-.11-.28-.17-.41-1-1.92-3.58-2.71-5.4-3.49-3.08-1.31-6.27-2.32-9.38-3.55-3.8-1.49-8-2.83-12.12-2.2a11.08,11.08,0,0,0-4.28,1.62,11,11,0,0,0-4.28-1.62c-4.12-.63-8.31.71-12.11,2.2-3.11,1.23-6.3,2.24-9.38,3.55-1.82.78-4.45,1.57-5.4,3.49a2.09,2.09,0,0,0-.17.41c-.62,1.79.22,3.75,1.14,5.27.55.92,2.16,3.57,3.28,3.79a43,43,0,0,0,14,.31c2.82-.34,5.61-.83,8.4-1.39a37.89,37.89,0,0,0,4.52-1,38.48,38.48,0,0,0,4.53,1c2.78.56,5.58,1,8.4,1.39a43,43,0,0,0,14-.31c1.12-.22,2.73-2.87,3.28-3.79C187.79,236.85,188.62,234.89,188,233.1Z"/><path class="cls-23" d="M117.12,283.92l0-.07a4.85,4.85,0,0,1,.7-.66l-.28.16.29-.17a9.87,9.87,0,0,1,1.78-1l.6-.27,2-1.07.11-.08h0c.37-.39,7-7.2,7.31-7.79a22.84,22.84,0,0,0,.14-6.27l5.45-.43a25.77,25.77,0,0,0,0,8.09,7.35,7.35,0,0,1,.91,1.24.83.83,0,0,0,.07.13l-.09,0h.07c.78.3,1.25,2.54,1.36,3.24a2.39,2.39,0,0,1,0,1.19,2.53,2.53,0,0,1-1.33,1.24c-1.13.57-2.36.92-3.52,1.44-2.13.95-4.23,2.23-6.47,3-2.49.87-5.15.88-7.73,1.27-.68.1-1.77.05-2.1-.68S116.67,284.48,117.12,283.92Z"/><path class="cls-27" d="M137.52,278.75a3.85,3.85,0,0,0-.08-.49A2.94,2.94,0,0,1,137.52,278.75Z"/><path class="cls-27" d="M125.84,281.93h0Z"/><path class="cls-27" d="M126.12,281.84l.24-.1Z"/><path class="cls-27" d="M123.14,281.42l-.14-.11Z"/><path class="cls-27" d="M122.8,281.15l.07.06Z"/><path class="cls-38" d="M116.29,286.15a1,1,0,0,0,.08.3,1.51,1.51,0,0,0,1.38.71,3.39,3.39,0,0,0,.72,0c1.29-.19,2.6-.29,3.9-.45.49-.06,1-.13,1.45-.22l.52-.1.92-.21.47-.13.47-.16c.56-.19,1.11-.42,1.66-.67s1.35-.64,2-1c.94-.48,1.86-1,2.79-1.37.29-.13.59-.25.88-.36l.89-.34c.59-.23,1.18-.46,1.75-.74a3.45,3.45,0,0,0,1-.67.8.8,0,0,0,.15-.17,1.56,1.56,0,0,0,.22-.4,1.64,1.64,0,0,0,.09-.44c0-.05,0-.1,0-.15a4.07,4.07,0,0,0-.06-.6c0-.22-.11-.59-.21-1l-.06-.25-.15-.48-.12-.34-.18-.43-.12-.21c-.23-.39-.55-.71-.81-1.08a3.15,3.15,0,0,1-.38-.5c-2,1.81-6,2.23-7.84.34-2,2.26-5,5.39-5.34,5.7,0,0,0,0,0,0l-.06,0-2,1.07-.6.27-.43.21-.07,0-.42.23a7,7,0,0,0-.86.56l-.29.17.28-.16a3,3,0,0,0-.28.24l-.11.1-.09.09a2.39,2.39,0,0,0-.22.23l0,.07L117,284h0l-.13.18a5.39,5.39,0,0,0-.38.72l-.07.18a3.58,3.58,0,0,0-.11.35,2.33,2.33,0,0,0-.06.35c0,.11,0,.22,0,.32Zm5.95-5.35h0a10.43,10.43,0,0,1-1.42.81l0,0-.48.22Z"/><path class="cls-32" d="M126.26,232.67s-1.43,0-1.08,3.81,4.29,34.31,4.29,34.31l6.22.2s3.38-22.66-1.69-35.47C134,235.52,131.24,229.8,126.26,232.67Z"/><path class="cls-26" d="M156.72,188.82h-.11c-8.12.06-16.5,3.74-16.5,3.74l2.33,33.05c5.74,3.93,13.19,4.37,14.17,4.42h.11c1-.05,8.42-.49,14.17-4.42l2.33-33.05S164.84,188.88,156.72,188.82Z"/><path class="cls-23" d="M196.21,283.92l-.06-.07a4,4,0,0,0-.7-.66l.29.16-.29-.17a9.62,9.62,0,0,0-1.79-1l-.6-.27-2-1.07-.1-.08h0c-.37-.39-7-7.2-7.32-7.79a22.67,22.67,0,0,1-.13-6.27l-5.45-.43a25.77,25.77,0,0,1,0,8.09,7.35,7.35,0,0,0-.91,1.24l-.07.13.09,0h-.07c-.78.3-1.25,2.54-1.36,3.24a2.28,2.28,0,0,0,0,1.19,2.49,2.49,0,0,0,1.33,1.24c1.13.57,2.36.92,3.51,1.44,2.14.95,4.23,2.23,6.48,3,2.49.87,5.15.88,7.73,1.27.68.1,1.76.05,2.09-.68S196.66,284.48,196.21,283.92Z"/><path class="cls-38" d="M197,286.14a1.71,1.71,0,0,0,0-.32,2.33,2.33,0,0,0-.06-.35,2,2,0,0,0-.1-.35,1.34,1.34,0,0,1-.07-.18,5.39,5.39,0,0,0-.38-.72l-.13-.18h0a.44.44,0,0,0-.08-.11l-.06-.07a2.29,2.29,0,0,0-.21-.23l-.09-.09-.11-.1a3.07,3.07,0,0,0-.29-.24l.29.16-.29-.17a7,7,0,0,0-.86-.56l-.42-.23-.08,0-.43-.21-.6-.27-2-1.07-.05,0-.05,0c-.3-.31-3.31-3.44-5.34-5.7-1.87,1.89-5.85,1.47-7.84-.34a3.89,3.89,0,0,1-.38.5c-.26.37-.59.69-.82,1.08l-.11.21a3.25,3.25,0,0,0-.18.43,2.3,2.3,0,0,0-.12.34c-.06.16-.1.32-.15.48L176,278a8.68,8.68,0,0,0-.21,1,3.05,3.05,0,0,0-.06.6.76.76,0,0,0,0,.15,1.64,1.64,0,0,0,.09.44,1.31,1.31,0,0,0,.22.4,1.15,1.15,0,0,0,.14.17,3.65,3.65,0,0,0,1,.67c.56.28,1.15.51,1.75.74l.89.34.87.36c.94.41,1.86.89,2.8,1.37.67.33,1.34.67,2,1s1.1.48,1.66.67l.47.16.47.13c.31.08.61.15.92.21l.52.1c.48.09,1,.16,1.45.22,1.3.16,2.61.26,3.9.45a3.36,3.36,0,0,0,.72,0,1.48,1.48,0,0,0,1.37-.71,1,1,0,0,0,.09-.3Zm-4-4.29-.48-.22,0,0a9.86,9.86,0,0,1-1.42-.81h0Z"/><path class="cls-32" d="M187.07,232.67s1.43,0,1.08,3.81-4.29,34.31-4.29,34.31l-6.22.2s-3.38-22.66,1.68-35.47C179.32,235.52,182.09,229.8,187.07,232.67Z"/><path class="cls-20" d="M168.06,179.33s-.25,10.33-4,14.84H148.9s-2.9-3-3.35-12.5c0,0-.68-5.77,3.84-6.44S165.89,172.43,168.06,179.33Z"/><path class="cls-23" d="M156.74,178.49l-9.68,1.87s.92,13.11,3.24,15.19a24.51,24.51,0,0,0,6.44,2.25,24.46,24.46,0,0,0,6.45-2.25c2.31-2.08,3.23-15.19,3.23-15.19Z"/><polygon class="cls-39" points="164.29 179.64 165.35 187.86 166.8 179.27 164.29 179.64"/><path class="cls-23" d="M169,183.64c.92,2.13-.56,6.09-4.07,6.85l1.22-7.15A1.61,1.61,0,0,1,169,183.64Z"/><path class="cls-23" d="M157.15,207.43c-.2-.62-.79-.66-1.12-1.19a1.88,1.88,0,0,1-.09-1.24c.06-.67-.44-.77-.9-1.14-.11-.08.09-1.15.1-1.29a7.77,7.77,0,0,0,.16-1.35c0-.62-.59-.71-1.1-.75l-4.76,5.1-.69,2.86L147.52,211s-12,8.43-13,11.58c-.43,1.34-.77,3.41,0,4.69,1.43,2.43,4.6,1.47,6.53.27,2.63-1.63,3.79-4.51,5.42-7q1-1.53,2-3a15.27,15.27,0,0,1,2.11-3l6.39-5.45A1.81,1.81,0,0,0,157.15,207.43Z"/><rect class="cls-20" x="153.58" y="197.71" width="7.54" height="15.29" transform="matrix(1, 0.01, -0.01, 1, 1.8, -1.36)"/><path class="cls-23" d="M156.43,207.43c.2-.62.8-.66,1.12-1.19a1.88,1.88,0,0,0,.09-1.24c-.06-.67.44-.77.91-1.14a5.36,5.36,0,0,0-.11-1.29,8.87,8.87,0,0,1-.16-1.35c.05-.62.59-.71,1.1-.75l2.65,3.95c.11-.55.33-1.62.52-2.43.28-1.15,1.36-.47,1.36-.47a4.58,4.58,0,0,0-.21,2.22l.44,1.83h0l.7,2.86,1.22,2.58s12,8.43,13,11.58c.42,1.34.76,3.41,0,4.69-1.42,2.43-4.6,1.47-6.53.27-2.63-1.63-3.78-4.51-5.42-7-.67-1-1.34-2-2-3a15.76,15.76,0,0,0-2.12-3l-6.39-5.45C156.18,208.73,156.28,207.91,156.43,207.43Z"/><path class="cls-20" d="M150.39,179.46s4.75,5.92,14.28,4.23c0,0-8.17-1.22-10.37-6.12Z"/><path class="cls-20" d="M151.54,179.35s12.13,7.35,18.64,0l2-2.93s-3.19.67-4.1-.62c-1.56-2.24-2.2-4.65-4.55-6.35a6.69,6.69,0,0,0-4.36-1.19,11.35,11.35,0,0,0-4.17,1.05,13.46,13.46,0,0,0-3.44,2.87s-3.23-1-5.22,1.14-.53,9.1-.53,9.1l2.6,4.4Z"/><polygon class="cls-19" points="156.68 186.48 155.61 192.13 156.72 193.09 157.77 192.03 156.68 186.48"/><path class="cls-23" d="M144.52,183.57c-.92,2.13.56,6.09,4.06,6.85l-1.21-7.15A1.61,1.61,0,0,0,144.52,183.57Z"/><rect class="cls-40" x="79.68" y="116.64" width="54.48" height="38.83"/><rect class="cls-41" x="130.45" y="72.52" width="27.24" height="19.41"/><path class="cls-42" d="M402.35,112.47,400.63,111c-.81,1-1.62,2-2.41,2.94l1.76,1.4C400.76,114.38,401.56,113.43,402.35,112.47Z"/><polygon class="cls-43" points="406.78 107.41 405.11 105.9 402.59 108.73 404.29 110.21 406.78 107.41"/><polygon class="cls-44" points="411.34 102.49 409.71 100.94 407.12 103.7 408.77 105.23 411.34 102.49"/><path class="cls-45" d="M390.85,128.92l-2-1.06c-.59,1.13-1.18,2.27-1.71,3.45l2,.94C389.71,131.12,390.28,130,390.85,128.92Z"/><path class="cls-46" d="M394.28,123.19,392.4,122c-.69,1.08-1.39,2.15-2,3.25l1.94,1.15C392.93,125.28,393.6,124.23,394.28,123.19Z"/><path class="cls-47" d="M398.13,117.74l-1.79-1.36c-.76,1-1.52,2-2.25,3.09l1.84,1.29C396.64,119.74,397.39,118.74,398.13,117.74Z"/><path class="cls-48" d="M385.13,147.82l-2.25-.1c0,.65-.05,1.31,0,2l.07,2,2.25-.15-.07-1.83C385.08,149.05,385.12,148.44,385.13,147.82Z"/><polygon class="cls-49" points="386.04 141.29 383.85 140.78 383.45 142.69 383.15 144.63 385.38 144.92 385.66 143.1 386.04 141.29"/><path class="cls-50" d="M388,135l-2.09-.82c-.46,1.2-.91,2.41-1.28,3.66l2.15.65C387.16,137.3,387.58,136.15,388,135Z"/><path class="cls-51" d="M390.12,166.66l-1.9,1.19a37.58,37.58,0,0,0,2.24,3.21l1.77-1.39C391.49,168.69,390.76,167.7,390.12,166.66Z"/><path class="cls-52" d="M387.2,160.76l-2.1.8a31.79,31.79,0,0,0,1.58,3.59l2-1A30.56,30.56,0,0,1,387.2,160.76Z"/><path class="cls-53" d="M385.51,154.43l-2.23.36a36,36,0,0,0,.84,3.84l2.17-.61A31.92,31.92,0,0,1,385.51,154.43Z"/><polygon class="cls-54" points="404.28 180.49 403.01 182.35 406.13 184.46 407.39 182.6 404.28 180.49"/><path class="cls-55" d="M398.92,176.52l-1.44,1.73c1,.83,2,1.61,3,2.37l1.33-1.82C400.85,178.06,399.86,177.32,398.92,176.52Z"/><path class="cls-56" d="M394.14,172l-1.67,1.51c.88.95,1.78,1.89,2.73,2.77l1.54-1.64C395.83,173.75,395,172.86,394.14,172Z"/><polygon class="cls-57" points="421.04 191.93 419.73 193.76 422.75 195.96 424.09 194.15 421.04 191.93"/><path class="cls-58" d="M415.49,188.07l-1.27,1.85c1,.71,2.06,1.41,3.08,2.13l1.29-1.84C417.56,189.48,416.52,188.77,415.49,188.07Z"/><polygon class="cls-59" points="409.91 184.29 408.65 186.16 411.77 188.26 413.03 186.4 409.91 184.29"/><path class="cls-60" d="M436.85,204.77l-1.56,1.63c.92.83,1.76,1.73,2.61,2.62l1.63-1.56C438.65,206.55,437.79,205.62,436.85,204.77Z"/><polygon class="cls-61" points="431.8 200.22 430.35 201.94 433.15 204.38 434.66 202.71 431.8 200.22"/><path class="cls-62" d="M426.52,196l-1.37,1.79c1,.74,2,1.51,2.93,2.3l1.41-1.75Q428,197.13,426.52,196Z"/><path class="cls-63" d="M449.55,220.77l-2,1.1c.56,1.08,1.22,2.12,1.67,3.25l2-1A36.36,36.36,0,0,0,449.55,220.77Z"/><path class="cls-64" d="M445.88,215l-1.83,1.32c.77,1,1.37,2,2.06,3l1.9-1.2C447.29,217.12,446.67,216,445.88,215Z"/><path class="cls-65" d="M441.61,209.71l-1.68,1.49c.79.94,1.62,1.85,2.38,2.82l1.76-1.41C443.29,211.61,442.43,210.68,441.61,209.71Z"/><path class="cls-66" d="M454.92,240.48l-2.25,0c0,1.21-.13,2.41-.24,3.61l2.24.27C454.78,243,454.93,241.76,454.92,240.48Z"/><path class="cls-67" d="M454.4,233.61l-2.21.38a15.41,15.41,0,0,1,.25,1.79,17.77,17.77,0,0,1,.17,1.79l2.25-.14c0-.65-.11-1.28-.18-1.92A17,17,0,0,0,454.4,233.61Z"/><path class="cls-68" d="M452.55,227l-2.09.83a35,35,0,0,1,1.11,3.42l2.17-.58A33.42,33.42,0,0,0,452.55,227Z"/><path class="cls-69" d="M449.46,260.19l-2-1.08c-.28.54-.62,1-.92,1.57s-.62,1-1,1.54l1.88,1.24q.54-.78,1-1.62C448.82,261.29,449.17,260.76,449.46,260.19Z"/><path class="cls-70" d="M452.32,254l-2.11-.78c-.45,1.13-.88,2.26-1.42,3.36l2,1C451.39,256.33,451.85,255.14,452.32,254Z"/><path class="cls-71" d="M454.17,247.36l-2.21-.44c-.13.6-.24,1.19-.38,1.78l-.48,1.75,2.16.64.51-1.85C453.92,248.62,454,248,454.17,247.36Z"/><path class="cls-72" d="M249.25,76.39l.63,2.16c1.21-.33,2.42-.69,3.65-1L253,75.38C251.72,75.68,250.49,76.06,249.25,76.39Z"/><path class="cls-73" d="M242.68,78.46l.73,2.13c1.19-.4,2.39-.8,3.59-1.17l-.67-2.15C245.11,77.64,243.89,78.05,242.68,78.46Z"/><path class="cls-74" d="M236.23,80.88l.86,2.08c1.16-.48,2.33-.94,3.51-1.37l-.78-2.11C238.62,79.92,237.42,80.39,236.23,80.88Z"/><polygon class="cls-75" points="269.51 72.14 269.8 74.37 273.56 73.92 273.33 71.69 269.51 72.14"/><path class="cls-76" d="M262.7,73.22l.41,2.22c1.23-.26,2.48-.44,3.73-.64l-.35-2.22C265.22,72.78,264,73,262.7,73.22Z"/><polygon class="cls-77" points="255.97 74.63 256.49 76.82 260.18 76 259.72 73.79 255.97 74.63"/><path class="cls-78" d="M290.2,71.22l-.11,2.24c1.26.08,2.52.09,3.76.24l.19-2.24C292.77,71.3,291.48,71.29,290.2,71.22Z"/><polygon class="cls-79" points="283.29 71.1 283.33 73.34 287.1 73.35 287.14 71.1 283.29 71.1"/><path class="cls-80" d="M276.42,71.43l.17,2.24c1.26-.13,2.51-.16,3.77-.22l-.1-2.25C279,71.26,277.7,71.3,276.42,71.43Z"/><path class="cls-81" d="M310.68,74.42l-.61,2.17c1.2.36,2.42.66,3.61,1.06l.7-2.14C313.16,75.1,311.91,74.79,310.68,74.42Z"/><polygon class="cls-82" points="303.95 72.82 303.52 75.03 307.19 75.83 307.72 73.64 303.95 72.82"/><path class="cls-83" d="M297.14,71.77,296.87,74c1.26.09,2.49.35,3.73.53l.35-2.23C299.68,72.14,298.42,71.87,297.14,71.77Z"/><polygon class="cls-84" points="329.8 82.45 328.66 84.39 331.82 86.41 333.06 84.53 329.8 82.45"/><path class="cls-85" d="M323.67,79.23l-1,2a17.46,17.46,0,0,1,1.68.83l1.66.88,1.06-2-1.71-.91A15.41,15.41,0,0,0,323.67,79.23Z"/><polygon class="cls-86" points="317.31 76.57 316.52 78.67 318.29 79.31 320.01 80.06 320.89 78 319.12 77.22 317.31 76.57"/><polygon class="cls-87" points="346.09 95.29 344.49 96.87 347.1 99.57 348.77 98.07 346.09 95.29"/><polygon class="cls-88" points="341.05 90.56 339.58 92.27 342.39 94.75 343.94 93.12 341.05 90.56"/><polygon class="cls-89" points="335.63 86.28 334.32 88.11 337.32 90.37 338.72 88.61 335.63 86.28"/><polygon class="cls-90" points="358.83 111.64 356.92 112.83 358.86 116.06 360.81 114.94 358.83 111.64"/><polygon class="cls-91" points="354.99 105.9 353.16 107.21 355.33 110.29 357.21 109.05 354.99 105.9"/><polygon class="cls-92" points="350.77 100.45 349.04 101.9 351.44 104.8 353.22 103.43 350.77 100.45"/><path class="cls-93" d="M65.05,372.4l-2.18.56c.3,1.17.63,2.32,1,3.47l2.15-.66C65.66,374.65,65.34,373.53,65.05,372.4Z"/><path class="cls-94" d="M63.75,366.26l-2.22.38c.2,1.18.42,2.36.68,3.54l2.2-.48C64.16,368.56,64,367.41,63.75,366.26Z"/><path class="cls-95" d="M63,360.05l-2.24.19c.08,1.2.25,2.39.38,3.59l2.23-.3C63.2,362.37,63,361.22,63,360.05Z"/><path class="cls-96" d="M72.16,389.78l-1.94,1.15c.59,1.05,1.27,2.05,1.92,3.07L74,392.75C73.39,391.76,72.73,390.8,72.16,389.78Z"/><path class="cls-97" d="M69.25,384.24l-2,.94c.53,1.09,1,2.19,1.62,3.24l2-1.05C70.24,386.35,69.76,385.28,69.25,384.24Z"/><path class="cls-98" d="M66.9,378.45l-2.12.75c.39,1.14.83,2.26,1.29,3.37l2.08-.86C67.71,380.63,67.28,379.55,66.9,378.45Z"/><polygon class="cls-99" points="84.83 403.16 83.7 405.11 85.31 406 86.97 406.79 87.91 404.74 86.34 404 84.83 403.16"/><path class="cls-100" d="M79.82,399.56l-1.5,1.68a16,16,0,0,0,1.42,1.19c.5.37,1,.76,1.48,1.12l1.29-1.85c-.47-.33-.91-.69-1.37-1A12.62,12.62,0,0,1,79.82,399.56Z"/><path class="cls-101" d="M75.64,395l-1.8,1.36a35.61,35.61,0,0,0,2.39,2.82l1.64-1.55A28.15,28.15,0,0,1,75.64,395Z"/><polygon class="cls-102" points="102.6 409.01 102.17 411.22 105.67 411.87 106.07 409.65 102.6 409.01"/><path class="cls-103" d="M96.45,407.66l-.56,2.18c1.16.31,2.34.55,3.5.82l.47-2.2C98.72,408.2,97.57,408,96.45,407.66Z"/><path class="cls-104" d="M90.49,405.82l-.79,2.11c1.14.4,2.28.82,3.45,1.15l.64-2.16C92.67,406.61,91.59,406.2,90.49,405.82Z"/><path class="cls-105" d="M121.14,414l-1,2a31,31,0,0,1,3,1.61l1.14-1.94A34.45,34.45,0,0,0,121.14,414Z"/><polygon class="cls-106" points="115.12 411.63 114.46 413.78 116.09 414.29 117.68 414.92 118.52 412.83 116.85 412.16 115.12 411.63"/><path class="cls-107" d="M108.88,410.15l-.39,2.21c1.18.19,2.25.48,3.38.71l.52-2.19C111.22,410.64,110,410.33,108.88,410.15Z"/><path class="cls-108" d="M136.43,425.68l-1.66,1.52c.76.87,1.54,1.72,2.29,2.61l1.72-1.44C138,427.45,137.21,426.57,136.43,425.68Z"/><path class="cls-109" d="M131.84,421.17l-1.49,1.69c.84.79,1.72,1.52,2.51,2.36l1.59-1.59C133.64,422.76,132.71,422,131.84,421.17Z"/><path class="cls-110" d="M126.77,417.23l-1.26,1.86c.92.67,1.89,1.28,2.76,2l1.4-1.76C128.76,418.58,127.74,417.93,126.77,417.23Z"/><polygon class="cls-111" points="147.94 441.01 146.06 442.24 147.97 445.2 149.86 443.99 147.94 441.01"/><path class="cls-112" d="M144.38,435.73,142.53,437c.69.94,1.33,1.93,2,2.89l1.87-1.25C145.72,437.68,145.07,436.69,144.38,435.73Z"/><polygon class="cls-113" points="140.6 430.6 138.82 431.99 140.93 434.77 142.75 433.44 140.6 430.6"/><path class="cls-114" d="M448.21,75.38a12.12,12.12,0,0,1-6.93-3.66,14.44,14.44,0,0,1-3.87-7,14.44,14.44,0,0,1-3.87,7,12.12,12.12,0,0,1-6.93,3.66l.09.1-.09.1a12.12,12.12,0,0,1,6.93,3.66,14.44,14.44,0,0,1,3.87,7,14.44,14.44,0,0,1,3.87-7,12.12,12.12,0,0,1,6.93-3.66l-.09-.1Z"/><path class="cls-115" d="M66.46,285a12.16,12.16,0,0,1-6.94-3.66,14.48,14.48,0,0,1-3.86-7,14.61,14.61,0,0,1-3.87,7A12.12,12.12,0,0,1,44.86,285l.09.1-.09.1a12.12,12.12,0,0,1,6.93,3.66,14.61,14.61,0,0,1,3.87,7,14.48,14.48,0,0,1,3.86-7,12.16,12.16,0,0,1,6.94-3.66l-.09-.1Z"/><path class="cls-116" d="M180.83,134.32a6.47,6.47,0,1,1-6.47-6.46A6.47,6.47,0,0,1,180.83,134.32Z"/><path class="cls-117" d="M173.53,407.66a6.46,6.46,0,1,1-6.46-6.47A6.46,6.46,0,0,1,173.53,407.66Z"/></g></svg>